<?xml version="1.0" encoding="UTF-8" standalone="no"?>
<!-- Created with Inkscape (http://www.inkscape.org/) -->

<svg
   xmlns:dc="http://purl.org/dc/elements/1.1/"
   xmlns:cc="http://creativecommons.org/ns#"
   xmlns:rdf="http://www.w3.org/1999/02/22-rdf-syntax-ns#"
   xmlns:svg="http://www.w3.org/2000/svg"
   xmlns="http://www.w3.org/2000/svg"
   xmlns:sodipodi="http://sodipodi.sourceforge.net/DTD/sodipodi-0.dtd"
   xmlns:inkscape="http://www.inkscape.org/namespaces/inkscape"
   version="1.1"
   id="svg3768"
   width="303"
   height="371"
   viewBox="0 0 303 371"
   sodipodi:docname="glass.svg"
   inkscape:version="0.92.3 (2405546, 2018-03-11)">
  <metadata
     id="metadata3774">
    <rdf:RDF>
      <cc:Work
         rdf:about="">
        <dc:format>image/svg+xml</dc:format>
        <dc:type
           rdf:resource="http://purl.org/dc/dcmitype/StillImage" />
        <dc:title></dc:title>
      </cc:Work>
    </rdf:RDF>
  </metadata>
  <defs
     id="defs3772" />
  <sodipodi:namedview
     pagecolor="#ffffff"
     bordercolor="#666666"
     borderopacity="1"
     objecttolerance="10"
     gridtolerance="10"
     guidetolerance="10"
     inkscape:pageopacity="0"
     inkscape:pageshadow="2"
     inkscape:window-width="1152"
     inkscape:window-height="812"
     id="namedview3770"
     showgrid="false"
     inkscape:zoom="0.89960755"
     inkscape:cx="440.65529"
     inkscape:cy="178.08032"
     inkscape:window-x="-8"
     inkscape:window-y="-8"
     inkscape:window-maximized="1"
     inkscape:current-layer="svg3768" />
  <path
     style="fill:#000000"
     d="m 133.17924,328.24057 c -5.43432,-0.34729 -10.40686,-1.33913 -13.78702,-2.75 -2.90786,-1.21373 -6.16982,-2.20678 -7.2488,-2.20678 -1.07897,0 -5.05226,-1.575 -8.82953,-3.5 -3.777272,-1.925 -7.299812,-3.5 -7.827862,-3.5 -0.52806,0 -2.91611,-2.7 -5.30679,-6 -2.39068,-3.3 -4.86033,-6 -5.48813,-6 -1.36119,0 -4.77209,-6.76994 -4.02221,-7.98327 0.28754,-0.46525 0.0891,-0.99684 -0.44107,-1.18132 -0.99648,-0.34675 -1.90958,-6.0779 -4.51447,-28.33541 -0.83679,-7.15 -2.21689,-17.275 -3.06689,-22.5 -2.2545,-13.8586 -5.46561,-40.81758 -6.38652,-53.61829 -0.43993,-6.11506 -1.04822,-11.52012 -1.35175,-12.01125 -0.30353,-0.49112 -0.8712,-5.61289 -1.26149,-11.38171 -0.39028,-5.76881 -0.91669,-10.84244 -1.16979,-11.27473 -0.60206,-1.0283 -2.13144,-15.90653 -3.31139,-32.21402 -0.51734,-7.15 -1.39302,-16.6 -1.94596,-21 -1.85686,-14.776022 -2.3856,-33.911021 -1.05321,-38.115673 3.29015,-10.382833 18.87291,-17.70692 49.012882,-23.036644 4.675,-0.826692 10.975,-1.99636 14,-2.599262 6.43626,-1.282789 52.59006,-1.597736 68.20832,-0.465443 5.88958,0.426983 12.41458,1.37398 14.5,2.104439 2.08543,0.73046 6.04168,1.630439 8.79168,1.999955 6.8829,0.924853 18.07685,4.336309 23.59277,7.190113 2.52602,1.306903 6.80102,2.871545 9.5,3.476983 7.23694,1.6234 9.85417,5.307951 9.85477,13.873615 2.5e-4,3.614554 -0.53924,9.946917 -1.19886,14.071917 -0.65963,4.125 -1.92234,14.25 -2.80602,22.5 -0.88368,8.25 -1.84646,16.125 -2.1395,17.5 -0.29305,1.375 -0.71963,4.3 -0.94796,6.5 -0.6881,6.62986 -3.37723,27.59427 -4.36123,34 -0.50692,3.3 -1.38519,9.15 -1.95171,13 -0.56653,3.85 -1.26225,8.575 -1.54605,10.5 -1.38768,9.41259 -2.61792,12.64068 -5.45645,14.31744 -1.56659,0.92541 -3.34141,1.68256 -3.94405,1.68256 -1.64818,0 -1.3167,-3.09833 0.55244,-5.1637 1.86327,-2.05889 3.21639,-8.71474 4.84587,-23.8363 0.38524,-3.575 1.28805,-9.425 2.00624,-13 1.16303,-5.78932 1.63148,-9.63537 2.98414,-24.5 0.20019,-2.2 0.8228,-6.0128 1.38358,-8.47289 0.56077,-2.46008 0.82379,-4.66868 0.58448,-4.90799 -0.23931,-0.2393 0.0549,-1.02555 0.65384,-1.7472 0.59892,-0.72166 1.25712,-4.13806 1.46268,-7.59201 0.20555,-3.45395 0.78627,-9.65491 1.29048,-13.77991 0.50421,-4.125 0.90021,-8.175 0.87999,-9 -0.0202,-0.825 0.29466,-3.412377 0.69974,-5.749726 0.66746,-3.851301 0.52083,-4.329512 -1.56404,-5.100757 -2.97692,-1.101233 -5.6831,-0.365827 -6.28684,1.708454 -0.26286,0.903116 -0.78367,5.242029 -1.15735,9.642029 -0.37368,4.4 -1.05895,10.25 -1.52283,13 -0.46387,2.75 -1.57542,10.175 -2.4701,16.5 -0.89468,6.325 -2.0407,12.54785 -2.54671,13.82855 -1.17389,2.97109 -3.37663,2.28537 -3.43901,-1.07057 -0.0262,-1.41104 -0.64508,-3.28533 -1.37523,-4.1651 -0.9612,-1.15818 -1.20374,-3.95806 -0.87894,-10.14638 0.24673,-4.70074 0.0781,-8.77579 -0.37477,-9.05567 -1.06621,-0.65895 -1.14051,0.0382 -1.39703,13.10917 -0.31269,15.93244 -1.86637,26.85011 -3.7337,26.23656 -1.93972,-0.63734 -2.27792,-8.43148 -0.9215,-21.23656 1.53324,-14.47426 2.06399,-38.484372 0.86706,-39.22382 -1.73855,-1.074051 -2.57147,2.434878 -2.66421,11.22382 -0.17537,16.61862 -1.02983,20.81959 -3.87674,19.0601 -0.72798,-0.44991 -0.89636,-4.94267 -0.51956,-13.86287 0.54875,-12.991059 -0.18669,-17.498785 -2.47811,-15.188871 -0.95838,0.966125 -2.5481,9.742575 -2.21738,12.241641 0.66204,5.0027 -0.0979,21.52725 -1.08071,23.5 -0.47952,0.9625 -1.50767,1.75 -2.28476,1.75 -1.16111,0 -1.32984,-2.00494 -0.94678,-11.25 0.25637,-6.1875 0.53824,-12.15 0.62637,-13.25 0.0881,-1.1 0.08,-4.1375 -0.018,-6.75 -0.15107,-4.023906 -0.48404,-4.75 -2.17832,-4.75 -1.1,0 -2.0081,0.5625 -2.018,1.25 -0.26301,18.26269 -1.38421,41.46925 -2.0368,42.15762 -0.50995,0.53792 -1.54192,0.34203 -2.53349,-0.48089 -1.45346,-1.20627 -1.59078,-2.83481 -1.04625,-12.40762 0.74608,-13.11598 0.93253,-29.554457 0.34192,-30.145068 -0.9654,-0.965394 -3.76266,1.003751 -4.24212,2.986259 -0.28462,1.176835 -0.63033,7.372609 -0.76825,13.768389 -0.17061,7.9117 -0.67795,12.14341 -1.5872,13.23899 -2.73984,3.30132 -3.31154,0.49292 -2.7557,-13.53723 0.46717,-11.791989 0.32228,-14.017399 -0.94426,-14.503417 -2.2128,-0.849131 -2.55271,-0.06561 -2.55271,5.884286 0,2.970991 -0.36754,5.996491 -0.81677,6.723351 -1.61634,2.6153 -3.04037,-0.16435 -3.04037,-5.93467 0,-8.73134 -2.31629,-9.328072 -3.32002,-0.855315 -0.23747,2.004575 -0.75268,4.163925 -1.1449,4.798555 -1.15102,1.8624 -3.39543,-0.66425 -3.33509,-3.754481 0.1068,-5.469798 -0.17715,-6.024831 -3.44999,-6.743668 -1.7875,-0.392601 -3.475,-0.765856 -3.75,-0.829455 -0.275,-0.0636 -0.725,1.454255 -1,3.373011 -0.68483,4.778263 -3.6028,5.323533 -4.75215,0.888022 -0.94747,-3.65641 -0.18858,-3.510686 -20.5665,-3.949228 -5.40026,-0.116217 -11.92526,-0.606447 -14.5,-1.089402 -4.29711,-0.806026 -17.66605,-2.441603 -26.200242,-3.205379 -1.9354,-0.17321 -4.45396,-0.815355 -5.59681,-1.426989 -3.24212,-1.73513 -4.14797,0.07548 -3.28932,6.574671 0.41561,3.145812 0.90176,12.458948 1.08034,20.695858 0.29266,13.49926 0.15562,15.00975 -1.38959,15.31644 -2.16757,0.43022 -2.68017,-1.6953 -3.20572,-13.29264 -1.03739,-22.892557 -1.88988,-31.404931 -3.19526,-31.905853 -0.72638,-0.278739 -1.61705,-0.02729 -1.97926,0.558779 -0.70124,1.134622 -0.66395,13.619863 0.0441,14.765506 0.23119,0.374071 0.69261,5.157948 1.02539,10.630848 0.33278,5.4729 1.0862,15.54581 1.67427,22.38426 0.99179,11.533 0.93883,12.52889 -0.73114,13.75 -4.00147,2.92595 -4.13396,2.36895 -4.91983,-20.68354 -0.34687,-10.175 -0.80892,-19.85 -1.02678,-21.5 -0.21785,-1.65 -0.65425,-6.6 -0.96977,-11 -0.67584,-9.424571 -1.10487,-11.133734 -2.97487,-11.851321 -1.04501,-0.401005 -1.56601,0.816516 -2.06771,4.831969 -0.36888,2.952428 -0.36666,5.859988 0.005,6.461245 0.3716,0.601256 0.84773,3.222799 1.05808,5.82565 0.58961,7.295977 1.56434,18.815717 2.43117,28.732457 0.77731,8.89259 0.56467,11.5 -0.93788,11.5 -1.8623,0 -2.91451,-3.05008 -3.45582,-10.01754 -0.31969,-4.11536 -0.80948,-10.40746 -1.08839,-13.98246 -0.5004,-6.41401 -1.43051,-22.029523 -1.85964,-31.221088 -0.26048,-5.579317 -1.26032,-6.979758 -3.14399,-4.403682 -0.87435,1.195744 -1.21354,3.543477 -0.93886,6.498428 0.23652,2.544488 0.90923,9.576342 1.49491,15.626342 0.58568,6.05 1.47853,15.725 1.98412,21.5 0.5056,5.775 1.09422,11.625 1.30807,13 2.78412,17.90159 2.32092,16.63749 6.74515,18.40772 3.11943,1.24814 3.93903,2.09795 3.93903,4.08418 0,2.90647 -2.05897,3.30627 -4.49285,0.87239 -1.20005,-1.20005 -1.93182,-1.33962 -2.74742,-0.52401 -0.99919,0.99918 0.0976,14.27527 1.8682,22.61424 0.23888,1.12502 0.64698,4.97048 0.9069,8.54548 0.60953,8.38381 0.99146,11.8526 2.3122,21 0.59559,4.125 1.56303,12.225 2.14989,18 0.58685,5.775 1.25435,11.85 1.48334,13.5 0.22899,1.65 1.09072,7.725 1.91496,13.5 0.82424,5.775 1.77247,12.975 2.10718,16 2.01044,18.17002 4.76201,25.6236 12.6413,34.24334 7.002102,7.66013 8.176422,8.4109 18.356302,11.73551 3.85,1.25736 7.675,2.5191 8.5,2.80386 2.66472,0.91977 4.24607,1.07096 21,2.00773 17.93733,1.00293 23.63083,0.94669 29,-0.28645 1.925,-0.44212 4.53399,-0.92411 5.79775,-1.0711 1.26377,-0.147 2.95754,-0.81483 3.76394,-1.48409 0.93877,-0.77911 3.04586,-1.00031 5.85758,-0.61492 3.22337,0.44181 4.53094,0.23825 4.91605,-0.76533 0.28856,-0.75198 2.21016,-1.9235 4.27021,-2.60338 2.06005,-0.67988 5.18889,-2.54955 6.95298,-4.15484 1.76408,-1.60528 3.89388,-3.45681 4.73288,-4.11451 1.84464,-1.44603 6.3293,-10.09473 7.28807,-14.05511 0.68044,-2.81064 0.63461,-2.84685 -2.69362,-2.12796 -3.92229,0.8472 -9.56813,3.75784 -16.9195,8.72264 -1.39351,0.94112 -3.41851,1.87386 -4.5,2.07276 -1.08149,0.1989 -3.09134,0.84058 -4.46634,1.42596 -6.68841,2.84746 -14.93543,4.23927 -23.75068,4.00828 -5.08788,-0.13331 -9.25038,0.10226 -9.25,0.52349 8.3e-4,0.93668 -5.25696,0.7553 -9.99932,-0.34493 -1.925,-0.44661 -5.975,-1.03394 -9,-1.30519 -8.54644,-0.76635 -14.31431,-1.69031 -16.5,-2.64315 -2.56531,-1.11832 -9.8078,-3.45005 -15.25,-4.90976 -2.3375,-0.62697 -4.250002,-1.57259 -4.250002,-2.10139 0,-0.5288 -0.81,-0.96146 -1.8,-0.96146 -2.58298,0 -4.2,-1.9793 -4.2,-5.14098 0,-1.50754 -0.50303,-3.05188 -1.11785,-3.43186 -0.70258,-0.43422 -0.89805,-2.29446 -0.52619,-5.00751 0.38897,-2.83781 0.0391,-5.7903 -1.02124,-8.61815 -1.81719,-4.84631 -2.80261,-10.65661 -5.30873,-31.3015 -0.60088,-4.95 -1.54509,-10.40989 -2.09822,-12.13309 -0.55314,-1.7232 -0.89905,-3.5232 -0.76869,-4 0.44085,-1.61245 -1.33776,-17.97489 -3.57266,-32.86691 -0.8254,-5.5 -1.69618,-13.0375 -1.93505,-16.75 -0.422,-6.55858 -0.36704,-6.75 1.93811,-6.75 1.64808,0 2.52238,0.68696 2.8636,2.25 0.69237,3.17158 2.65412,21.55952 3.44064,32.25 0.36419,4.95 0.94777,9.45592 1.29686,10.01316 0.34909,0.55724 0.90633,4.15724 1.2383,8 0.67649,7.83066 1.2578,11.91243 2.63283,18.48684 0.51764,2.475 1.07294,6.975 1.23401,10 0.24989,4.69333 0.59807,5.54447 2.37392,5.80322 1.14459,0.16677 2.78002,-0.39573 3.63429,-1.25 2.31222,-2.31222 4.232612,-1.88245 4.471222,1.00062 0.17024,2.05696 -0.46449,2.83624 -3.262262,4.00522 -4.51223,1.88533 -7.25509,5.84171 -5.50873,7.94595 1.48009,1.7834 4.66891,1.97579 5.22248,0.31508 0.23298,-0.69896 1.13649,-0.89472 2.21655,-0.48026 1.538582,0.5904 1.724382,1.42095 1.190032,5.31948 -0.34827,2.54091 -0.63322,5.85454 -0.63322,7.36363 0,1.90279 -0.613022,2.90411 -2.000002,3.26681 -2.46683,0.64509 -2.58644,2.33848 -0.25,3.53928 2.985912,1.53458 10.237082,2.1124 10.363292,0.82581 0.37096,-3.78151 -0.91575,-19.4454 -3.17529,-38.65484 -0.54991,-4.675 -1.14154,-10.525 -1.31473,-13 -0.17319,-2.475 -0.60825,-6.75 -0.9668,-9.5 -0.35854,-2.75 -0.89718,-9.46163 -1.19698,-14.91474 -0.2998,-5.45311 -0.7784,-10.29225 -1.06356,-10.75365 -0.28516,-0.4614 -0.722292,-4.77477 -0.971392,-9.58526 -0.59174,-11.4271 -1.09385,-14.24454 -3.51334,-19.71421 -2.60678,-5.89304 -6.074,-8.28662 -9.90754,-6.83962 -3.47562,1.3119 -5.43468,0.24087 -4.56596,-2.49623 0.45758,-1.4417 1.99625,-2.34015 5.16518,-3.01602 5.95519,-1.27012 9.94676,0.21875 11.46188,4.27532 0.6254,1.67442 1.60188,4.16941 2.169962,5.54441 0.56808,1.375 1.40389,3.4 1.85734,4.5 2.17443,5.27474 3.20299,12.4151 4.10537,28.5 0.53997,9.625 1.1513,20.425 1.3585,24 0.20721,3.575 0.73318,9.425 1.16882,13 0.89344,7.33172 0.19033,6.9879 11.55026,5.64795 4.58595,-0.54094 5.89003,-0.38143 6.33368,0.77469 1.18504,3.08817 -1.32545,5.0463 -7.78577,6.07275 -3.4776,0.55253 -6.09792,1.35852 -5.82292,1.79108 0.275,0.43257 -0.14168,1.18306 -0.92595,1.66777 -3.78078,2.33665 -1.11383,7.8916 3.17062,6.60404 7.50818,-2.25637 11.5756,-1.46844 11.65837,2.25842 0.0206,0.92581 0.32862,5.07186 0.68457,9.21342 0.53577,6.23377 0.37078,7.75953 -0.95838,8.86263 -1.99896,1.65899 -2.23724,1.04601 -3.05101,-7.84897 -0.96872,-10.58861 -2.66213,-9.87942 -2.35019,0.98425 0.25543,8.89596 0.15035,9.47197 -1.72803,9.47197 -1.25337,0 -1.8767,-0.55657 -1.66971,-1.49088 0.76037,-3.43216 -0.7197,-14.00912 -1.96034,-14.00912 -1.31387,0 -1.47084,6.21099 -0.28433,11.25 0.53714,2.28117 0.31511,2.75 -1.30238,2.75 -2.8769,0 -3.22585,0.80776 -1.68406,3.89835 2.75056,5.51363 6.58796,7.11781 20.90082,8.73735 8.18773,0.92647 8.74982,0.92824 18.20021,0.0575 4.22517,-0.38928 7.44201,-0.27215 7.78541,0.28348 0.69698,1.12774 5.62173,-0.53239 6.68556,-2.25371 0.39154,-0.63352 1.9757,-1.20464 3.52036,-1.26915 2.32957,-0.0973 2.86332,-0.61492 3.13016,-3.03559 0.30532,-2.76967 0.24718,-2.81836 -1.14179,-0.95603 -1.17075,1.56976 -1.75243,1.72245 -2.90802,0.7634 -1.14229,-0.94802 -1.27488,-2.43944 -0.63366,-7.1281 0.90828,-6.64151 -0.11428,-17.59755 -1.64244,-17.59755 -0.54769,0 -1.15141,1.125 -1.34161,2.5 -0.71385,5.16059 -4.15418,6.81691 -4.15418,2 0,-1.65 -0.3612,-3 -0.80268,-3 -0.44147,0 -0.83338,4.1625 -0.87092,9.25 -0.11722,15.88763 -0.2051,16.19895 -4.67641,16.56633 -2.57271,0.21138 -3.62802,-0.0429 -3.1809,-0.76631 0.36801,-0.59546 1.04001,-0.85341 1.49333,-0.57324 0.45333,0.28017 1.03932,-0.49999 1.30219,-1.73369 0.68311,-3.20585 0.27921,-24.5326 -0.47897,-25.29078 -0.34874,-0.34875 -1.90568,-0.0207 -3.45986,0.729 -2.399,1.15722 -2.82578,1.96386 -2.82578,5.34089 0,3.36378 -0.34732,4.02713 -2.25,4.29735 -1.87414,0.26617 -2.25256,-0.15145 -2.26531,-2.5 -0.0205,-3.78106 -1.46067,-6.1275 -2.34553,-3.82161 -0.35154,0.9161 -0.63916,2.78597 -0.63916,4.15528 0,1.3693 -0.63612,3.12576 -1.4136,3.90324 -0.99634,0.99633 -1.26695,2.89374 -0.91677,6.42802 0.4002,4.03923 0.17585,5.13758 -1.15362,5.64775 -3.52083,1.35107 -3.8139,-0.26988 -4.99596,-27.63223 -0.54317,-12.57342 -1.11087,-19.55934 -2.51917,-31 -1.02723,-8.34489 -1.69574,-17.63558 -2.5544,-35.5 -0.49627,-10.32486 -0.95449,-12.76777 -3.28249,-17.5 -2.51113,-5.10446 -2.98337,-5.52289 -6.56663,-5.81822 -2.1235,-0.17502 -4.34162,0.16248 -4.92914,0.75 -1.80927,1.80932 -4.66822,1.25439 -4.66822,-0.90605 0,-2.38391 4.67057,-5.02568 8.88524,-5.02568 4.87258,0 7.96708,1.71087 9.43161,5.21451 0.75534,1.80702 2.07894,3.87063 2.94133,4.5858 2.04992,1.69997 3.13014,9.74333 4.19012,31.19969 0.25812,5.225 1.01622,15.6986 1.68468,23.27466 1.37663,15.60245 1.39187,15.62352 10.32659,14.28367 4.15867,-0.62363 4.52586,-0.48719 5.91417,2.19751 2.36108,4.56582 0.95785,5.49647 -7.09156,4.70331 -6.95078,-0.68492 -7.01257,-0.66948 -7.66076,1.9131 -1.36914,5.4551 4.16955,9.30518 8.91411,6.19643 2.65714,-1.74103 3.58023,-1.51714 7.20788,1.74821 l 2.24341,2.01936 1.1364,-3.25989 c 1.00508,-2.88316 1.4392,-3.17706 3.75659,-2.54319 1.44111,0.39419 5.47407,0.85606 8.96214,1.02639 6.66164,0.3253 9.76096,2.31014 8.4952,5.44044 -2.97324,7.35294 -3.71559,10.96432 -3.44311,16.75 0.13556,2.87845 1.86566,2.93772 2.28641,0.0783 0.17575,-1.19442 0.94298,-2.37723 1.70494,-2.62847 1.08402,-0.35742 1.2405,0.31556 0.71932,3.0937 -0.73417,3.91344 0.69074,5.78779 2.26351,2.97747 0.88032,-1.57301 1.11449,-1.44661 2.0943,1.13045 0.60674,1.59581 0.92419,3.39581 0.70545,4 -0.61011,1.68519 1.22205,4.59852 2.89196,4.59852 2.3615,0 3.52471,-4.66555 3.34304,-13.4086 -0.18957,-9.12271 -0.53497,-10.59137 -2.49091,-10.59137 -1.42238,0 -2.19097,2.13613 -2.80295,7.79017 -0.79873,7.37938 -3.1805,5.1171 -3.99036,-3.79017 -0.32504,-3.575 -0.70973,-7.79197 -0.85487,-9.37105 -0.35884,-3.90425 3.45432,-5.56489 5.98675,-2.60723 2.13017,2.48787 2.95174,2.4914 3.73738,0.0161 0.82282,-2.59252 -1.09601,-6.03782 -3.36268,-6.03782 -0.99236,0 -2.31688,-1.125 -2.94338,-2.5 -0.62649,-1.375 -1.59872,-2.5 -2.16051,-2.5 -1.55642,0 -1.21798,-3.12534 0.54999,-5.07893 1.05849,-1.16961 1.56367,-3.64345 1.54766,-7.57874 -0.0131,-3.21328 0.64767,-12.81733 1.46832,-21.34233 2.47243,-25.68417 1.83706,-38.66351 -2.10598,-43.02052 -1.3018,-1.43847 -2.28446,-1.58646 -5.59506,-0.84261 -2.20875,0.49627 -5.21967,2.0185 -6.69092,3.38272 -3.21212,2.97844 -6.19545,3.25966 -6.19545,0.584 0,-4.41277 9.93123,-10.08443 17.68191,-10.09801 3.82606,-0.007 6.66359,3.45547 7.78145,9.49442 0.40724,2.2 0.97702,5.125 1.26619,6.5 1.01741,4.83786 -0.0837,35.14597 -1.35139,37.19715 -0.28653,0.4636 -0.72279,5.59482 -0.96949,11.4027 -0.24669,5.80788 -1.04201,11.98637 -1.76737,13.72997 -1.5917,3.82606 -1.12655,5.67018 1.43022,5.67018 1.44905,0 2.0579,-0.95713 2.54447,-4 0.35179,-2.2 1.03211,-4 1.51182,-4 0.4797,0 1.20969,-0.1125 1.62219,-0.25 0.4125,-0.1375 0.975,2 1.25,4.75 0.41409,4.14094 0.83887,5 2.47232,5 2.21374,0 2.98705,-3.01207 3.86942,-15.07161 0.27881,-3.81061 0.7791,-10.07839 1.11176,-13.92839 1.0089,-11.6767 2.75623,-35.73635 2.91795,-40.17846 0.17403,-4.77995 0.85646,-5.8318 3.20017,-4.93243 1.40483,0.53908 1.56515,1.66453 1.05035,7.37354 -0.33414,3.70554 -0.83496,9.88735 -1.11292,13.73735 -0.27797,3.85 -0.74966,10.15 -1.0482,14 -0.44958,5.79785 -0.33197,6.65743 0.68483,5.00526 0.67519,-1.09711 1.36415,-5.59711 1.53101,-10 0.16686,-4.40289 0.51647,-8.56186 0.77693,-9.24215 0.26045,-0.68028 0.75069,-6.98028 1.08943,-14 0.69729,-14.44991 0.20373,-15.95066 -5.54633,-16.8645 -2.7113,-0.4309 -4.01372,-0.0693 -5.79844,1.60997 -2.63136,2.47586 -5.19828,2.00335 -5.19828,-0.95687 0,-2.36397 6.64021,-6.14681 11.00779,-6.27099 3.15115,-0.0896 8.50634,3.65416 9.61148,6.71928 1.30042,3.60677 1.17341,8.76789 -0.63985,26 -0.98386,9.35 -2.08075,20.375 -2.43754,24.5 -0.35679,4.125 -1.42196,14.25 -2.36704,22.5 -1.47366,12.86422 -1.52277,15.40556 -0.3449,17.84831 0.75539,1.56658 1.73283,2.46658 2.1721,2 0.43926,-0.46657 1.98816,-13.44831 3.44198,-28.84831 1.45383,-15.4 2.82214,-29.35 3.0407,-31 0.21855,-1.65 0.85407,-7.5 1.41227,-13 2.00291,-19.73511 2.6743,-22.50102 5.09822,-21.00296 0.88567,0.54737 1.07332,3.44549 0.6865,10.60274 -0.29277,5.41721 -0.80674,10.2935 -1.14214,10.8362 -0.33541,0.54269 -0.85155,4.71661 -1.147,9.27537 -0.29544,4.55876 -0.98885,10.08865 -1.54091,12.28865 -0.55205,2.2 -1.18088,7.825 -1.3974,12.5 -0.82284,17.76719 -2.03025,33.04091 -3.47825,44 -2.3971,18.14229 -2.34219,16.76946 -0.57397,14.35 2.08761,-2.85649 4.34889,-11.78547 5.64632,-22.29529 0.58084,-4.70509 1.25664,-9.90471 1.50179,-11.55471 0.24514,-1.65 0.6946,-4.8 0.99879,-7 0.3042,-2.2 0.79238,-5.125 1.08486,-6.5 0.29248,-1.375 0.63977,-6.325 0.77175,-11 0.3359,-11.89812 2.9721,-17.94205 7.84445,-17.98469 2.43543,-0.0213 2.27634,4.04584 -0.28566,7.30289 -3.38681,4.30563 -4.45229,8.48047 -2.67399,10.4774 1.226,1.37672 1.34218,2.76179 0.60433,7.2044 -0.5024,3.025 -1.16272,7.75 -1.46738,10.5 -0.30465,2.75 -0.9397,6.575 -1.41123,8.5 -0.47152,1.925 -1.15526,6.425 -1.51942,10 -1.22403,12.0163 -1.43185,13.23676 -3.38502,19.8792 -1.07075,3.64144 -2.51907,9.3208 -3.21849,12.6208 -1.4663,6.91827 -3.41101,12.08399 -4.8943,13.00072 -0.56731,0.35061 -0.80652,1.00144 -0.5316,1.44627 0.83665,1.35372 -7.18143,9.69398 -10.68292,11.11219 -1.80638,0.73163 -4.40932,2.10707 -5.78432,3.05652 -1.375,0.94946 -8.89474,3.34862 -16.71052,5.33147 -13.20463,3.35 -15.11583,3.58564 -27,3.32901 -7.03422,-0.1519 -16.61448,-0.52063 -21.28948,-0.8194 z m 45.78044,-38.97416 c -0.0466,-1.64044 -0.41524,-2.98262 -0.81912,-2.98262 -0.83764,0 -1.8609,5.76709 -1.14948,6.4785 1.05724,1.05725 2.04803,-0.70221 1.9686,-3.49588 z m 23.5891,-4.73262 c 0.27737,-0.9625 0.34732,-2.9875 0.15544,-4.5 -0.19188,-1.5125 0.0615,-2.75 0.56308,-2.75 0.50157,0 0.91194,-3.32686 0.91194,-7.39301 0,-5.46514 -0.37042,-7.53516 -1.42048,-7.9381 -1.122,-0.43055 -1.54868,1.07037 -2.03058,7.14301 -0.33555,4.22845 -0.98158,9.8256 -1.43563,12.4381 -0.73064,4.204 -0.61993,4.75 0.96319,4.75 0.9838,0 2.01567,-0.7875 2.29304,-1.75 z m -7.5234,-2.65493 c 1.04338,-3.77881 0.1924,-9.74889 -1.46853,-10.30253 -0.87523,-0.29175 -1.18748,8.05059 -0.48498,12.95746 0.24041,1.67928 1.06693,0.55599 1.95351,-2.65493 z m 15.12345,-6.96751 c -0.0241,-5.65769 -0.25637,-6.73851 -1.12611,-5.241 -0.60264,1.03761 -1.33417,4.86261 -1.62562,8.5 -0.48655,6.07239 -0.39442,6.50116 1.12612,5.241 1.26428,-1.04779 1.64883,-3.05851 1.62561,-8.5 z m -72.96959,-6.62756 c 0,-1.1 -0.45,-2 -1,-2 -0.55,0 -1,0.9 -1,2 0,1.1 0.45,2 1,2 0.55,0 1,-0.9 1,-2 z m 59.33995,-3.39608 c 1.288,-1.96573 1.35356,-2.86221 0.36501,-4.99147 -1.58751,-3.41938 -2.98931,-2.81634 -4.14873,1.78473 -0.74064,2.93918 -0.63302,3.94188 0.5,4.65874 0.79408,0.5024 1.50452,0.92035 1.57876,0.92877 0.0742,0.008 0.84148,-1.06292 1.70496,-2.38077 z m 7.81657,-10.85392 c 0.0861,-0.6875 0.24342,-2.375 0.34961,-3.75 0.1062,-1.375 0.51184,-6.53858 0.90144,-11.47462 0.38959,-4.93605 0.44315,-8.70943 0.11903,-8.38531 -0.80329,0.80329 -1.18001,3.07957 -1.96281,11.85993 -0.36775,4.125 -0.90581,8.7375 -1.19567,10.25 -0.31183,1.6271 -0.0863,2.75 0.55242,2.75 0.59371,0 1.1499,-0.5625 1.23598,-1.25 z M 232.72104,99.073246 c 0.12139,-4.559201 0.52088,-10.201956 0.88775,-12.539456 0.38648,-2.462432 0.27113,-4.25 -0.27426,-4.25 -1.7032,0 -2.32153,3.346136 -2.86423,15.5 -0.43498,9.74141 -0.29437,11.77216 0.7471,10.78946 0.80282,-0.75753 1.36552,-4.31272 1.50364,-9.500004 z m -6.19932,-2.998653 c 0.36238,-5.878015 0.21561,-9.945883 -0.37195,-10.309017 -0.53379,-0.329901 -0.98683,-0.235762 -1.00675,0.209197 -0.80104,17.890687 -0.81646,21.549227 -0.0875,20.754667 0.47719,-0.52011 1.13697,-5.31479 1.46619,-10.654847 z M 169.22,86.148708 c 2.49742,-0.13287 5.08492,0.09472 5.75,0.505767 0.66508,0.411042 1.68495,0.453344 2.26637,0.094 1.4902,-0.920993 5.10043,-1.387575 15.44287,-1.995821 4.95,-0.291114 10.43539,-0.991652 12.18976,-1.556753 1.75437,-0.565101 3.77937,-0.926319 4.5,-0.802707 1.92177,0.329648 8.92479,-1.064829 11.81024,-2.351713 1.375,-0.613238 3.175,-1.184797 4,-1.270131 1.97286,-0.204063 8.76418,-3.000847 18.5472,-7.638067 7.63136,-3.617316 3.42261,-11.077043 -6.92968,-12.282387 -1.6757,-0.195106 -3.21266,-0.852522 -3.41546,-1.460924 -0.2028,-0.608402 -1.11873,-1.116069 -2.03539,-1.128148 -0.91667,-0.01207 -3.69167,-0.945842 -6.16667,-2.075034 -4.17072,-1.902844 -18.99778,-5.496547 -26.89457,-6.51856 -1.86701,-0.241632 -5.24201,-0.865979 -7.5,-1.387439 -2.25799,-0.52146 -5.79293,-0.95911 -7.85543,-0.972555 -2.0625,-0.01344 -3.75018,-0.361946 -3.7504,-0.774446 -8e-4,-1.518997 -46.2295,-1.477112 -54.4996,0.04938 -1.1,0.203037 -4.925,0.71518 -8.5,1.138096 -3.575,0.422915 -7.79295,0.921743 -9.37323,1.108507 -5.01012,0.592118 -19.086392,3.734949 -20.126772,4.493735 -0.55,0.401136 -2.575,1.05042 -4.5,1.442852 -1.925,0.392433 -5.38013,1.794395 -7.67807,3.115473 -2.29794,1.321077 -4.77294,2.419509 -5.5,2.440959 -1.88087,0.05549 -8.01654,8.711963 -7.62308,10.75499 0.1807,0.938305 0.54738,1.540465 0.81485,1.338133 0.26747,-0.202332 2.22876,0.360168 4.35843,1.25 2.12966,0.88983 4.56923,1.617875 5.42126,1.617875 0.85202,0 2.25956,0.628072 3.12787,1.395716 2.18441,1.93117 10.76262,4.745784 15.57874,5.111577 2.2,0.167093 4.675,0.531277 5.5,0.809296 5.279342,1.779104 12.812012,2.925036 21.500002,3.270761 5.5,0.218863 11.575,0.632681 13.5,0.919596 1.925,0.286914 9.28537,0.713097 16.35638,0.947074 7.07101,0.233977 13.11346,0.68249 13.42767,0.996695 0.3142,0.314206 1.27883,0.365295 2.14362,0.113533 0.86478,-0.251762 3.61567,-0.566461 6.11309,-0.69933 z M 122.67414,75.03379 c -0.29877,-1.2375 -0.41984,-7.2 -0.26906,-13.25 0.25527,-10.241948 0.41199,-11 2.27416,-11 1.87498,0 2.00002,0.666773 2.00032,10.666987 1.8e-4,5.866843 0.32184,10.98851 0.71482,11.381483 1.04629,1.046295 -1.04302,4.45153 -2.73127,4.45153 -0.79517,0 -1.69021,-1.0125 -1.98897,-2.25 z m -16.90635,-3 c -0.34184,-2.3375 -0.88959,-7.28225 -1.21722,-10.988334 -0.5069,-5.733815 -0.34535,-6.834406 1.0837,-7.382783 2.55473,-0.980341 4.1017,1.103795 2.85324,3.843991 -0.57061,1.252419 -0.71231,3.177126 -0.31489,4.277126 0.39741,1.1 1.03383,4.8125 1.41425,8.25 0.63758,5.76113 0.53958,6.25 -1.25294,6.25 -1.52363,0 -2.07917,-0.920084 -2.56614,-4.25 z m 7.99287,2.073907 c -0.53935,-1.730867 -1.83952,-13.383095 -1.97525,-17.702382 -0.1143,-3.637255 2.49758,-6.427339 4.30531,-4.599049 0.5316,0.537638 1.10648,5.918466 1.27753,11.957394 0.27791,9.81184 0.1245,11.016469 -1.44203,11.323907 -0.96417,0.18922 -1.93867,-0.251722 -2.16556,-0.97987 z m 18.5233,-0.972149 c -0.51982,-1.293467 -1.45501,-6.339835 -2.0782,-11.214151 -1.01563,-7.943856 -0.95602,-9.058032 0.57519,-10.75 2.15958,-2.386308 4.02759,-2.413162 4.6412,-0.06672 0.2619,1.001489 0.5321,6.352434 0.60045,11.890989 0.0953,7.720359 -0.21615,10.35262 -1.33462,11.28087 -1.1916,0.988944 -1.63205,0.779902 -2.40402,-1.140988 z m 10.0788,0.462809 c -0.52577,-0.998012 -1.2754,-6.786082 -1.66582,-12.862377 -0.6254,-9.733085 -0.50706,-11.216134 0.99443,-12.462253 1.49095,-1.237383 1.87852,-1.176178 3.09608,0.488939 2.00348,2.739921 1.97167,23.794978 -0.0385,25.463246 -1.13661,0.943299 -1.62654,0.814451 -2.38622,-0.627555 z M 98.256128,72.87643 c -0.64241,-0.774047 -1.38621,-4.432122 -1.6529,-8.129054 -0.37123,-5.146181 -0.10302,-7.304507 1.14432,-9.208173 1.49584,-2.282946 1.76063,-2.355043 3.234892,-0.880785 1.37501,1.375009 1.42551,2.103977 0.35153,5.074029 -0.95778,2.648688 -0.99032,4.448205 -0.13768,7.614654 1.59672,5.929772 -0.0452,9.017569 -2.940162,5.529329 z m -7.81568,-0.84264 c -0.54103,-0.6875 -1.23543,-2.891864 -1.54312,-4.898587 -0.50167,-3.271846 -0.30793,-3.696665 1.87627,-4.114202 2.42129,-0.462859 3.02513,0.446145 3.49598,5.262789 0.46749,4.782358 -1.50023,6.709416 -3.82913,3.75 z m 61.135342,-1.158981 c -0.60722,-1.582411 1.10272,-4.591019 2.60932,-4.591019 0.41854,0 0.97603,1.125 1.23888,2.5 0.26285,1.375 0.35211,2.5 0.19837,2.5 -0.15375,0 -0.98756,0.271689 -1.8529,0.603754 -0.94517,0.362696 -1.82103,-0.04165 -2.19367,-1.012735 z M 82.880478,70.651693 c -0.38568,-0.38568 -0.70124,-1.611089 -0.70124,-2.723131 0,-1.968068 -0.0548,-1.963041 -2.05961,0.18884 -2.57327,2.762086 -3.5084,2.215831 -4.27304,-2.4961 -0.99488,-6.130717 2.57907,-8.749358 4.21387,-3.087512 l 0.93841,3.25 0.0902,-3.595012 c 0.056,-2.230625 0.84545,-4.278517 2.08022,-5.395971 1.94109,-1.756659 2.02561,-1.715816 3.43631,1.660465 1.05301,2.520201 1.20498,4.531297 0.55889,7.395971 -0.48806,2.164001 -0.7969,4.153384 -0.68631,4.420852 0.33171,0.802256 -2.84056,1.138731 -3.59769,0.381598 z m -13.57938,-1.646048 c -1.6617,-1.661701 -1.35987,-5.69329 0.47907,-6.398957 1.84776,-0.709054 3.36163,1.223736 3.38376,4.320113 0.0178,2.49276 -2.236,3.705681 -3.86283,2.078844 z m 92.088692,-3.031296 c -0.98358,-1.251506 -2.3868,-9.750749 -2.59051,-15.690559 -0.10186,-2.969938 0.24145,-3.551112 2.26687,-3.837492 1.3128,-0.185621 2.71402,0.191779 3.11382,0.838667 0.39979,0.646888 0.76437,5.147253 0.81016,10.000813 0.0625,6.620885 -0.25986,8.95632 -1.2907,9.351892 -0.75568,0.289981 -1.79502,-0.0085 -2.30964,-0.663321 z M 150.80424,61.15879 c -1.16314,-5.8157 -0.72934,-12.620982 0.84297,-13.224337 0.80739,-0.309823 1.64833,-0.245468 1.86876,0.143011 0.83854,1.477838 1.69679,12.955399 1.08748,14.543223 -1.03812,2.70531 -3.12648,1.90173 -3.79921,-1.461897 z m 19.05161,-1.625 c -1.48862,-2.529267 -1.5927,-6.972283 -0.20543,-8.769457 1.51183,-1.95853 1.54549,-1.958968 3.02882,-0.03941 1.56516,2.025449 1.92915,5.27694 0.89301,7.977083 -0.62732,1.634775 -2.93924,2.152219 -3.7164,0.831787 z m 9.99006,-1.916667 c -1.25279,-1.252783 -0.66945,-7.086135 0.83333,-8.333333 2.08174,-1.727695 4.5,0.380188 4.5,3.922445 0,3.836367 -3.23356,6.510658 -5.33333,4.410888 z M 161.17924,286.28379 c 0,-1.92157 0.50926,-3 1.41667,-3 1.67271,0 2.43837,1.80385 1.80394,4.25 -0.77535,2.98951 -3.22061,2.04044 -3.22061,-1.25 z m -10.36052,1.30615 c -1.12618,-1.12619 -0.68589,-2.30615 0.86052,-2.30615 0.825,0 1.5,0.42344 1.5,0.94098 0,1.26098 -1.56159,2.1641 -2.36052,1.36517 z m 5.94806,-36.16451 c -0.29178,-0.4721 -0.44713,-16.5596 -0.34524,-35.75 0.18515,-34.86962 0.18381,-34.89401 -2.12729,-38.64164 -2.07401,-3.36318 -2.7423,-3.75 -6.47859,-3.75 -2.30638,0 -5.89509,0.92671 -8.03948,2.07604 -3.37265,1.80763 -4.05974,1.88973 -5.3145,0.63497 -1.25476,-1.25476 -1.07871,-1.7261 1.3617,-3.64573 1.54153,-1.21257 4.06158,-2.45642 5.60013,-2.76413 1.53854,-0.30771 3.03954,-0.95135 3.33556,-1.43031 0.29601,-0.47896 2.27383,-0.87084 4.39516,-0.87084 3.317,0 4.30883,0.57054 7.08475,4.07543 5.78383,7.30268 5.95196,8.52306 5.59835,40.63774 -0.17691,16.06724 -0.0131,29.71246 0.36408,30.32271 0.41821,0.67668 2.01063,0.86299 4.08179,0.47758 4.29318,-0.79892 10.90248,1.78264 10.88073,4.24996 -0.0346,3.92818 -1.5442,4.72177 -6.89619,3.62543 -3.83931,-0.78647 -5.77952,-0.71766 -8.176,0.28999 -3.68025,1.54743 -4.60496,1.62779 -5.32496,0.4628 z m 37.41246,-68.05985 c 0,-2.27927 1.37205,-4.08179 3.10699,-4.08179 1.35254,0 1.89301,0.71376 1.89301,2.5 0,2 -0.5,2.5 -2.5,2.5 -1.375,0 -2.5,-0.4132 -2.5,-0.91821 z m 16.59441,-30.92903 c -1.07625,-1.74141 -0.91139,-8.90618 0.38318,-16.65276 0.7353,-4.4 1.43312,-9.125 1.55071,-10.5 0.11759,-1.375 0.27183,-3.0625 0.34275,-3.75 0.13687,-1.32679 3.03916,-1.77222 3.2579,-0.5 0.79505,4.62426 -1.28703,29.07873 -2.66573,31.30951 -0.72308,1.16997 -2.17421,1.21713 -2.86881,0.0933 z m -7.92774,-8.81943 c -2.03295,-2.03294 0.72137,-15.33333 3.17531,-15.33333 1.13181,0 2.35971,2.86464 1.69142,3.94596 -0.26021,0.42102 -0.5561,3.30541 -0.65754,6.40976 -0.14851,4.54474 -0.51153,5.64428 -1.86348,5.64428 -0.92348,0 -1.97905,-0.3 -2.34571,-0.66667 z"
     id="path3791"
     inkscape:connector-curvature="0" />
</svg>
